# xmcd
#
# Track frame offsets: 
#        182
#        14007
#        32077
#        48855
#        68940
#        88860
#        115615
#        133040
#        151127
#        173422
#        196415
#        210035
#        222585
#        237145
#        251160
#        269465
#        280137
#        297437
#        317207
#        338732
#
# Disc length: 4741 seconds
#
# Revision: 1
# Processed by: cddbd v1.5.2PL0 Copyright (c) Steve Scherf et al.
# Submitted via: ExactAudioCopy v0.99pb5
#
DISCID=26128314
DTITLE=Sylvia Robinson - Pillow Talk: The Sensuous Sounds of Sylvia
DYEAR=1996
DGENRE=Soul
TTITLE0=Not On The Outside
TTITLE1=Lay It On Me
TTITLE2=If You Get The Notion 
TTITLE3=Sweet Stuff
TTITLE4=Pillow Talk
TTITLE5=You Sure Love To Ball
TTITLE6=Easy Evil
TTITLE7=Didn't I
TTITLE8=Next Time That I See You
TTITLE9=He Don't Ever Lose His Groove
TTITLE10=My Thing
TTITLE11=Pussy Cat
TTITLE12=Sunday
TTITLE13=Sho Nuff Boogie (Part I)
TTITLE14=Sweet Baby
TTITLE15=Private Performance
TTITLE16=L.A. Sunshine
TTITLE17=Automatic Lover
TTITLE18=It's Good To Be The Queen
TTITLE19=Give It Up In Vain
EXTD=Record Label:\tRhino Records\nCatalog Number:\tR2 71987\nRecordin
EXTD=g Dates:\t1972 - 1978\nOriginal Release:\t1972 - 1978\nCD Reissue
EXTD=:\t1996
EXTT0=
EXTT1=
EXTT2=
EXTT3=
EXTT4=
EXTT5=
EXTT6=
EXTT7=
EXTT8=
EXTT9=
EXTT10=
EXTT11=
EXTT12=
EXTT13=
EXTT14=
EXTT15=
EXTT16=
EXTT17=
EXTT18=
EXTT19=
PLAYORDER=
